<svg width="1440" height="1142" viewBox="0 0 1440 1142" fill="none" xmlns="http://www.w3.org/2000/svg">
<g clip-path="url(#clip0_699_19560)">
<rect width="1440" height="1142" fill="white"/>
<g style="mix-blend-mode:multiply" clip-path="url(#clip1_699_19560)">
<mask id="mask0_699_19560" style="mask-type:alpha" maskUnits="userSpaceOnUse" x="0" y="0" width="1440" height="999">
<g clip-path="url(#clip2_699_19560)">
<path d="M716.076 303.828C716.076 451.088 618.711 570.465 498.606 570.465C378.5 570.465 -371.906 53.9679 -371.906 -93.292C-371.906 -240.552 706.281 -37.8213 826.387 -37.8213C946.492 -37.8213 716.076 156.568 716.076 303.828Z" fill="url(#paint0_linear_699_19560)"/>
<path d="M800.541 934.853C800.541 1082.11 703.176 1201.49 583.071 1201.49C462.965 1201.49 -206.126 1167.17 -206.126 1019.91C-206.126 872.645 -156.668 523.821 -36.5621 523.821C83.5434 523.821 800.541 787.593 800.541 934.853Z" fill="url(#paint1_radial_699_19560)"/>
<path d="M1047.24 304.232C1371.3 596.92 1221.6 449.832 1499.95 442.422C1543.61 450.833 1617.74 451.233 1564.93 385.541C1498.91 303.427 1520.19 245.429 1437.68 155.965C1355.18 66.5009 1304.94 -24.3929 1180.38 -166.683C1055.83 -308.973 1046.24 -191.679 905.824 -202.798C765.404 -213.917 829.45 -196.26 635.706 10.1971C441.962 216.654 723.171 11.543 1047.24 304.232Z" fill="#D9D9D9"/>
<path d="M741.291 764.613C307.611 815.672 516.887 799.913 339.128 1014.23C304.039 1041.55 254.914 1097.06 339.128 1100.59C444.396 1105 474.023 1159.21 595.68 1156.06C717.337 1152.91 818.824 1174.97 1007.93 1174.97C1197.03 1174.97 1115.09 1090.5 1215.94 992.169C1316.8 893.835 1261.33 930.395 1233.59 648.629C1205.86 366.863 1174.97 713.555 741.291 764.613Z" fill="#D9D9D9"/>
</g>
</mask>
<g mask="url(#mask0_699_19560)">
<line y1="644.644" x2="1511.58" y2="644.644" stroke="#D0D5DD" stroke-width="1.2607"/>
<line y1="321.906" x2="1511.58" y2="321.906" stroke="#D0D5DD" stroke-width="1.2607"/>
<line y1="483.274" x2="1511.58" y2="483.274" stroke="#D0D5DD" stroke-width="1.2607"/>
<line y1="160.536" x2="1511.58" y2="160.536" stroke="#D0D5DD" stroke-width="1.2607"/>
<line y1="563.959" x2="1511.58" y2="563.959" stroke="#D0D5DD" stroke-width="1.2607"/>
<line y1="241.221" x2="1511.58" y2="241.221" stroke="#D0D5DD" stroke-width="1.2607"/>
<line y1="402.589" x2="1511.58" y2="402.589" stroke="#D0D5DD" stroke-width="1.2607"/>
<line y1="79.8506" x2="1511.58" y2="79.8506" stroke="#D0D5DD" stroke-width="1.2607"/>
<line x1="47.2749" y1="-29.1987" x2="47.2748" y2="1138.21" stroke="#D0D5DD" stroke-width="1.2607"/>
<line x1="692.755" y1="-29.1987" x2="692.755" y2="1138.21" stroke="#D0D5DD" stroke-width="1.2607"/>
<line x1="370.015" y1="-29.1987" x2="370.015" y2="1138.21" stroke="#D0D5DD" stroke-width="1.2607"/>
<line x1="1015.49" y1="-29.1987" x2="1015.49" y2="1138.21" stroke="#D0D5DD" stroke-width="1.2607"/>
<line x1="1338.23" y1="-29.1987" x2="1338.23" y2="1138.21" stroke="#D0D5DD" stroke-width="1.2607"/>
<line x1="208.645" y1="-29.1987" x2="208.645" y2="1138.21" stroke="#D0D5DD" stroke-width="1.2607"/>
<line x1="854.122" y1="-29.1987" x2="854.122" y2="1138.21" stroke="#D0D5DD" stroke-width="1.2607"/>
<line x1="531.385" y1="-29.1987" x2="531.385" y2="1138.21" stroke="#D0D5DD" stroke-width="1.2607"/>
<line x1="1176.86" y1="-29.1987" x2="1176.86" y2="1138.21" stroke="#D0D5DD" stroke-width="1.2607"/>
<line x1="127.962" y1="-29.1987" x2="127.962" y2="1138.21" stroke="#D0D5DD" stroke-width="1.2607"/>
<line x1="773.439" y1="-29.1987" x2="773.439" y2="1138.21" stroke="#D0D5DD" stroke-width="1.2607"/>
<line x1="450.698" y1="-29.1987" x2="450.698" y2="1138.21" stroke="#D0D5DD" stroke-width="1.2607"/>
<line x1="1096.18" y1="-29.1987" x2="1096.18" y2="1138.21" stroke="#D0D5DD" stroke-width="1.2607"/>
<line x1="1418.91" y1="-29.1987" x2="1418.91" y2="1138.21" stroke="#D0D5DD" stroke-width="1.2607"/>
<line x1="289.332" y1="-29.1987" x2="289.332" y2="1138.21" stroke="#D0D5DD" stroke-width="1.2607"/>
<line x1="934.809" y1="-29.1987" x2="934.809" y2="1138.21" stroke="#D0D5DD" stroke-width="1.2607"/>
<line x1="612.068" y1="-29.1987" x2="612.068" y2="1138.21" stroke="#D0D5DD" stroke-width="1.2607"/>
<line x1="1257.54" y1="-29.1987" x2="1257.54" y2="1138.21" stroke="#D0D5DD" stroke-width="1.2607"/>
</g>
</g>
<path d="M253.712 607.71C254.54 607.732 255.194 608.42 255.173 609.249C255.151 610.077 254.462 610.731 253.634 610.709L253.712 607.71ZM177.363 460.88L178.628 460.074L178.629 460.074L177.363 460.88ZM115.773 536.3L116.194 534.86L116.195 534.86L115.773 536.3ZM133.546 356.762C134.229 356.294 135.163 356.469 135.631 357.152C136.099 357.836 135.924 358.77 135.24 359.238L133.546 356.762ZM239.232 625.163C238.594 625.693 237.649 625.606 237.119 624.968C236.59 624.331 236.677 623.385 237.314 622.856L239.232 625.163ZM255.833 609.42L257.1 608.616C257.504 609.253 257.372 610.091 256.792 610.574L255.833 609.42ZM242.59 590.468C242.221 589.726 242.523 588.826 243.265 588.457C244.007 588.088 244.907 588.39 245.276 589.132L242.59 590.468ZM253.673 609.21C253.634 610.709 253.633 610.709 253.632 610.709C253.631 610.709 253.629 610.709 253.628 610.709C253.624 610.709 253.618 610.709 253.611 610.709C253.597 610.708 253.576 610.708 253.549 610.707C253.495 610.705 253.415 610.703 253.31 610.699C253.101 610.691 252.792 610.679 252.391 610.66C251.587 610.623 250.41 610.56 248.906 610.455C245.899 610.246 241.586 609.871 236.344 609.21C225.866 607.889 211.654 605.42 196.744 600.826C167.012 591.665 134.051 573.907 122.906 539.472L125.76 538.548C136.435 571.533 168.144 588.875 197.627 597.959C212.325 602.487 226.357 604.927 236.72 606.234C241.899 606.887 246.156 607.256 249.115 607.462C250.594 607.565 251.748 607.627 252.53 607.664C252.921 607.682 253.219 607.694 253.418 607.701C253.517 607.704 253.592 607.707 253.641 607.708C253.666 607.709 253.684 607.71 253.696 607.71C253.702 607.71 253.706 607.71 253.709 607.71C253.71 607.71 253.711 607.71 253.711 607.71C253.712 607.71 253.712 607.71 253.673 609.21ZM122.906 539.472C111.838 505.273 121.149 478.802 135.533 464.096C142.7 456.768 151.171 452.326 159.017 451.41C166.913 450.488 174.225 453.158 178.628 460.074L176.098 461.685C172.421 455.912 166.337 453.575 159.365 454.389C152.344 455.209 144.476 459.244 137.678 466.194C124.132 480.042 115.008 505.327 125.76 538.548L122.906 539.472ZM178.629 460.074C182.914 466.809 184.225 475.999 183.112 485.614C181.996 495.254 178.427 505.483 172.742 514.432C161.361 532.345 141.305 545.339 115.351 537.739L116.195 534.86C140.511 541.981 159.325 529.954 170.209 512.823C175.657 504.249 179.069 494.45 180.132 485.269C181.198 476.063 179.887 467.641 176.098 461.685L178.629 460.074ZM115.352 537.739C102.233 533.9 92.5323 523.45 86.4317 509.455C80.3318 495.461 77.7646 477.799 78.946 459.193C81.3074 422.005 98.6831 380.625 133.546 356.762L135.24 359.238C101.323 382.454 84.2586 422.869 81.94 459.384C80.7814 477.63 83.3142 494.795 89.1818 508.256C95.0487 521.715 104.183 531.345 116.194 534.86L115.352 537.739ZM237.314 622.856L254.874 608.266L256.792 610.574L239.232 625.163L237.314 622.856ZM255.833 609.42C254.567 610.224 254.566 610.223 254.566 610.223C254.566 610.223 254.566 610.223 254.566 610.223C254.566 610.222 254.565 610.222 254.565 610.221C254.563 610.219 254.562 610.216 254.559 610.212C254.554 610.204 254.547 610.193 254.538 610.178C254.519 610.148 254.491 610.104 254.454 610.046C254.381 609.931 254.273 609.761 254.136 609.543C253.861 609.108 253.466 608.482 252.985 607.718C252.025 606.191 250.723 604.112 249.358 601.907C246.65 597.532 243.629 592.556 242.59 590.468L245.276 589.132C246.237 591.064 249.166 595.898 251.908 600.328C253.268 602.525 254.566 604.597 255.525 606.121C256.004 606.882 256.398 607.507 256.672 607.94C256.809 608.157 256.916 608.326 256.988 608.441C257.025 608.498 257.053 608.542 257.071 608.572C257.081 608.586 257.088 608.598 257.092 608.605C257.095 608.609 257.097 608.611 257.098 608.613C257.098 608.614 257.099 608.615 257.099 608.615C257.099 608.616 257.099 608.616 257.099 608.616C257.099 608.616 257.1 608.616 255.833 609.42Z" fill="#101828"/>
<path d="M1186.29 607.71C1185.46 607.732 1184.81 608.42 1184.83 609.249C1184.85 610.077 1185.54 610.731 1186.36 610.709L1186.29 607.71ZM1262.64 460.88L1261.37 460.074L1261.37 460.074L1262.64 460.88ZM1324.23 536.3L1323.8 534.86L1323.8 534.86L1324.23 536.3ZM1306.45 356.762C1305.77 356.294 1304.84 356.469 1304.37 357.152C1303.9 357.836 1304.08 358.77 1304.76 359.238L1306.45 356.762ZM1200.77 625.163C1201.4 625.693 1202.35 625.606 1202.88 624.968C1203.41 624.331 1203.32 623.385 1202.68 622.856L1200.77 625.163ZM1184.17 609.42L1182.9 608.616C1182.5 609.253 1182.63 610.091 1183.21 610.574L1184.17 609.42ZM1197.41 590.468C1197.78 589.726 1197.48 588.826 1196.73 588.457C1195.99 588.088 1195.09 588.39 1194.72 589.132L1197.41 590.468ZM1186.33 609.21C1186.36 610.709 1186.37 610.709 1186.37 610.709C1186.37 610.709 1186.37 610.709 1186.37 610.709C1186.38 610.709 1186.38 610.709 1186.39 610.709C1186.4 610.708 1186.42 610.708 1186.45 610.707C1186.5 610.705 1186.58 610.703 1186.69 610.699C1186.9 610.691 1187.21 610.679 1187.61 610.66C1188.41 610.623 1189.59 610.56 1191.09 610.455C1194.1 610.246 1198.41 609.871 1203.65 609.21C1214.13 607.889 1228.35 605.42 1243.26 600.826C1272.99 591.665 1305.95 573.907 1317.09 539.472L1314.24 538.548C1303.56 571.533 1271.86 588.875 1242.37 597.959C1227.67 602.487 1213.64 604.927 1203.28 606.234C1198.1 606.887 1193.84 607.256 1190.88 607.462C1189.41 607.565 1188.25 607.627 1187.47 607.664C1187.08 607.682 1186.78 607.694 1186.58 607.701C1186.48 607.704 1186.41 607.707 1186.36 607.708C1186.33 607.709 1186.31 607.71 1186.3 607.71C1186.3 607.71 1186.29 607.71 1186.29 607.71C1186.29 607.71 1186.29 607.71 1186.29 607.71C1186.29 607.71 1186.29 607.71 1186.33 609.21ZM1317.09 539.472C1328.16 505.273 1318.85 478.802 1304.47 464.096C1297.3 456.768 1288.83 452.326 1280.98 451.41C1273.09 450.488 1265.77 453.158 1261.37 460.074L1263.9 461.685C1267.58 455.912 1273.66 453.575 1280.63 454.389C1287.66 455.209 1295.52 459.244 1302.32 466.194C1315.87 480.042 1324.99 505.327 1314.24 538.548L1317.09 539.472ZM1261.37 460.074C1257.09 466.809 1255.77 475.999 1256.89 485.614C1258 495.254 1261.57 505.483 1267.26 514.432C1278.64 532.345 1298.69 545.339 1324.65 537.739L1323.8 534.86C1299.49 541.981 1280.67 529.954 1269.79 512.823C1264.34 504.249 1260.93 494.45 1259.87 485.269C1258.8 476.063 1260.11 467.641 1263.9 461.685L1261.37 460.074ZM1324.65 537.739C1337.77 533.9 1347.47 523.45 1353.57 509.455C1359.67 495.461 1362.23 477.799 1361.05 459.193C1358.69 422.005 1341.32 380.625 1306.45 356.762L1304.76 359.238C1338.68 382.454 1355.74 422.869 1358.06 459.384C1359.22 477.63 1356.68 494.795 1350.82 508.256C1344.95 521.715 1335.82 531.345 1323.8 534.86L1324.65 537.739ZM1202.68 622.856L1185.12 608.266L1183.21 610.574L1200.77 625.163L1202.68 622.856ZM1184.17 609.42C1185.43 610.224 1185.43 610.223 1185.43 610.223C1185.43 610.223 1185.43 610.223 1185.43 610.223C1185.43 610.222 1185.43 610.222 1185.43 610.221C1185.44 610.219 1185.44 610.216 1185.44 610.212C1185.44 610.204 1185.45 610.193 1185.46 610.178C1185.48 610.148 1185.51 610.104 1185.54 610.046C1185.62 609.931 1185.73 609.761 1185.86 609.543C1186.14 609.108 1186.53 608.482 1187.01 607.718C1187.97 606.191 1189.28 604.112 1190.64 601.907C1193.35 597.532 1196.37 592.556 1197.41 590.468L1194.72 589.132C1193.76 591.064 1190.83 595.898 1188.09 600.328C1186.73 602.525 1185.43 604.597 1184.47 606.121C1184 606.882 1183.6 607.507 1183.33 607.94C1183.19 608.157 1183.08 608.326 1183.01 608.441C1182.97 608.498 1182.95 608.542 1182.93 608.572C1182.92 608.586 1182.91 608.598 1182.91 608.605C1182.9 608.609 1182.9 608.611 1182.9 608.613C1182.9 608.614 1182.9 608.615 1182.9 608.615C1182.9 608.616 1182.9 608.616 1182.9 608.616C1182.9 608.616 1182.9 608.616 1184.17 609.42Z" fill="#101828"/>
<g filter="url(#filter0_f_699_19560)">
<circle cx="9" cy="358" r="105" fill="#234BD2"/>
</g>
<g filter="url(#filter1_f_699_19560)">
<circle cx="1425" cy="386" r="105" fill="#234BD2"/>
</g>
</g>
<defs>
<filter id="filter0_f_699_19560" x="-396" y="-47" width="810" height="810" filterUnits="userSpaceOnUse" color-interpolation-filters="sRGB">
<feFlood flood-opacity="0" result="BackgroundImageFix"/>
<feBlend mode="normal" in="SourceGraphic" in2="BackgroundImageFix" result="shape"/>
<feGaussianBlur stdDeviation="150" result="effect1_foregroundBlur_699_19560"/>
</filter>
<filter id="filter1_f_699_19560" x="1020" y="-19" width="810" height="810" filterUnits="userSpaceOnUse" color-interpolation-filters="sRGB">
<feFlood flood-opacity="0" result="BackgroundImageFix"/>
<feBlend mode="normal" in="SourceGraphic" in2="BackgroundImageFix" result="shape"/>
<feGaussianBlur stdDeviation="150" result="effect1_foregroundBlur_699_19560"/>
</filter>
<linearGradient id="paint0_linear_699_19560" x1="147.501" y1="-19.5411" x2="601.983" y2="222.513" gradientUnits="userSpaceOnUse">
<stop stop-color="white"/>
<stop offset="1" stop-color="white" stop-opacity="0"/>
</linearGradient>
<radialGradient id="paint1_radial_699_19560" cx="0" cy="0" r="1" gradientUnits="userSpaceOnUse" gradientTransform="translate(112.831 941.112) rotate(-29.3932) scale(777.019 1335.47)">
<stop stop-color="white"/>
<stop offset="1" stop-color="white" stop-opacity="0"/>
</radialGradient>
<clipPath id="clip0_699_19560">
<rect width="1440" height="1142" fill="white"/>
</clipPath>
<clipPath id="clip1_699_19560">
<rect width="1440" height="672" fill="white"/>
</clipPath>
<clipPath id="clip2_699_19560">
<rect width="1440" height="998.473" fill="white"/>
</clipPath>
</defs>
</svg>
